<svg width="158" height="138" viewBox="0 0 158 138" fill="none" xmlns="http://www.w3.org/2000/svg">
<path d="M22.1284 43.5049C23.5088 45.8949 26.5647 46.7143 28.9557 45.3356L38.0227 40.1073C40.4164 38.7271 41.2367 35.667 39.8545 33.2745L36.795 27.9791C34.8691 24.6458 37.2747 20.4778 41.1243 20.4778H116.88C120.728 20.4778 123.134 24.6441 121.21 27.9775L83.3472 93.569C81.4223 96.9035 76.6092 96.9026 74.6856 93.5674L71.6191 88.2506C70.2383 85.8565 67.1771 85.0367 64.7847 86.4203L55.7136 91.6664C53.3241 93.0483 52.5065 96.1051 53.8871 98.4954L74.6845 134.502C76.6094 137.835 81.4199 137.835 83.3442 134.502L156.67 7.50002C158.594 4.16669 156.189 0 152.34 0H5.66211C1.8127 0 -0.592877 4.16747 1.33245 7.5008L22.1284 43.5049Z" fill="#FD223C"/>
</svg>
