<svg width="32" height="32" viewBox="0 0 32 32" fill="none" xmlns="http://www.w3.org/2000/svg">
<path d="M16 21.3333L15.2929 22.0404L16 22.7475L16.7071 22.0404L16 21.3333ZM17 5.33331C17 4.78103 16.5523 4.33331 16 4.33331C15.4477 4.33331 15 4.78103 15 5.33331L17 5.33331ZM7.29289 14.0404L15.2929 22.0404L16.7071 20.6262L8.70711 12.6262L7.29289 14.0404ZM16.7071 22.0404L24.7071 14.0404L23.2929 12.6262L15.2929 20.6262L16.7071 22.0404ZM17 21.3333L17 5.33331L15 5.33331L15 21.3333L17 21.3333Z" fill="white"/>
<path d="M6.66669 28L25.3334 28" stroke="white" stroke-width="2"/>
</svg>
