<svg width="147" height="137" viewBox="0 0 147 137" fill="none" xmlns="http://www.w3.org/2000/svg">
<g filter="url(#filter0_f_103_2)">
<path d="M38.3154 53.0565C39.9865 55.9499 43.6861 56.942 46.5806 55.2727L48.116 54.3872C50.1654 53.2053 50.8678 50.5852 49.6844 48.5367V48.5367C48.0355 45.6824 50.0953 42.1136 53.3917 42.1136H88.9037C94.2919 42.1136 97.6598 47.9461 94.9664 52.6128L77.2216 83.3575C75.5721 86.2154 71.447 86.2146 69.7985 83.3561V83.3561C68.6153 81.3042 65.9916 80.6016 63.9413 81.7876L62.4066 82.6752C59.513 84.3489 58.5229 88.0507 60.1946 90.9454L67.4459 103.501C70.1407 108.168 76.8761 108.167 79.57 103.5L115.939 40.4997C118.633 35.833 115.265 30 109.876 30H37.1261C31.7371 30 28.3693 35.8341 31.0643 40.5007L38.3154 53.0565Z" fill="#FD223C"/>
</g>
<path d="M38.8415 53.9674C40.2219 56.3577 43.2782 57.1772 45.6693 55.7982L48.116 54.3872C50.1654 53.2053 50.8678 50.5852 49.6844 48.5367V48.5367C48.0355 45.6824 50.0953 42.1136 53.3917 42.1136H92.3672C96.2159 42.1136 98.6216 46.2797 96.6977 49.613L77.2216 83.3575C75.5721 86.2154 71.447 86.2146 69.7985 83.3561V83.3561C68.6153 81.3042 65.9916 80.6016 63.9413 81.7876L61.4936 83.2033C59.1043 84.5853 58.2868 87.6418 59.6672 90.032L69.1782 106.501C71.103 109.834 75.914 109.834 77.8383 106.5L117.671 37.4998C119.595 34.1664 117.189 30 113.34 30H33.6615C29.8122 30 27.4066 34.1672 29.3317 37.5005L38.8415 53.9674Z" fill="#FD223C"/>
<defs>
<filter id="filter0_f_103_2" x="0.115627" y="0" width="146.771" height="137.001" filterUnits="userSpaceOnUse" color-interpolation-filters="sRGB">
<feFlood flood-opacity="0" result="BackgroundImageFix"/>
<feBlend mode="normal" in="SourceGraphic" in2="BackgroundImageFix" result="shape"/>
<feGaussianBlur stdDeviation="15" result="effect1_foregroundBlur_103_2"/>
</filter>
</defs>
</svg>
