<svg width="32" height="32" viewBox="0 0 32 32" fill="none" xmlns="http://www.w3.org/2000/svg">
<path d="M23.4665 30.0801H8.53313C6.10646 30.0801 3.89313 28.2134 3.49313 25.8134L1.71979 15.2001C1.43979 13.5468 2.2398 11.4268 3.5598 10.3735L12.7998 2.97341C14.5865 1.5334 17.3998 1.54675 19.1998 2.98675L28.4398 10.3735C29.7465 11.4268 30.5465 13.5468 30.2798 15.2001L28.5065 25.8134C28.1065 28.1734 25.8531 30.0801 23.4665 30.0801Z" fill="white"/>
<path d="M16.0001 15C14.7201 15 13.6667 16.0533 13.6667 17.3333C13.6667 18.6133 14.7201 19.6667 16.0001 19.6667C17.2801 19.6667 18.3334 18.6133 18.3334 17.3333C18.3334 16.0533 17.2801 15 16.0001 15Z" fill="#333333"/>
</svg>
