<svg width="25" height="25" viewBox="0 0 25 25" fill="none" xmlns="http://www.w3.org/2000/svg">
<path d="M11.6449 23.5115C5.30841 23.5115 0.149536 18.3433 0.149536 11.9955C0.149536 5.64765 5.30841 0.479492 11.6449 0.479492C17.9813 0.479492 23.1402 5.64765 23.1402 11.9955C23.1402 18.3433 17.9813 23.5115 11.6449 23.5115ZM11.6449 2.16476C6.22804 2.16476 1.83178 6.58016 1.83178 11.9955C1.83178 17.4108 6.22804 21.8262 11.6449 21.8262C17.0617 21.8262 21.4579 17.4108 21.4579 11.9955C21.4579 6.58016 17.0617 2.16476 11.6449 2.16476Z" fill="white"/>
<path d="M23.4206 24.635C23.2075 24.635 22.9944 24.5564 22.8262 24.3878L20.5832 22.1408C20.258 21.815 20.258 21.2757 20.5832 20.9499C20.9084 20.6241 21.4467 20.6241 21.772 20.9499L24.015 23.1969C24.3402 23.5227 24.3402 24.062 24.015 24.3878C23.8467 24.5564 23.6337 24.635 23.4206 24.635Z" fill="white"/>
</svg>
